<?xml version="1.0" encoding="UTF-8"?>
<svg id="Ebene_1" xmlns="http://www.w3.org/2000/svg" version="1.1" viewBox="0 0 595.3 642.6">
  <!-- Generator: Adobe Illustrator 30.3.0, SVG Export Plug-In . SVG Version: 2.1.3 Build 182)  -->
  <path d="M448.1,11.9c-.5-.7-.6-1.5-.6-2.3.9.5.7,1.5.6,2.3Z" fill="#1c9165"/>
  <path d="M447.7,20v-1.3s0,1.3,0,1.3Z" fill="#1c9165"/>
  <g>
    <path d="M306.3,11.4l1.2.2c25,1.1,49.2,7.7,71.8,19.4L446,0c1.3,3.9,1.4,6.7,1.5,9.6,0,.8.2,1.6.6,2.3l-.4,6.8v1.3c0,10.9-4.3,21.5-10.7,31.3-33.8,5.2-66.8,10-98.3,24-6.5,2.9-10.7,7.4-13.9,13.8l-14.9,30.7-12.6,25.7-13-27.8-17.8-34.9c-3.8-7.5-31-16.3-43.5-19.5-21.5-5.5-42.7-9.1-64.7-12.1-10.8-15-13.2-33.3-9.6-51.4l67.3,30.9c28.1-14.5,59.1-20.8,90.2-19.5ZM297.6,97.4l22.1-40c10.5-6.1,21.5-9.7,33.2-15.4-35.9-13.8-74.4-13.2-110.4-.2l32.8,15.2,22.2,40.4Z" fill="#243665"/>
    <path d="M461.9,209.2l2.3,18.1c7.1,48.1-5.5,95.9-32.2,135.9-32.7,48.5-82,84.5-134.1,110.7-37.3-18.1-70.6-41.2-100.5-69.6l15.6-14.5c25.2,23.6,53.3,43.5,84.6,59.9,27-13.8,51.8-30.9,74.6-50.8,7.4-6.4,13.3-12.8,19.9-19.8,38.6-41.2,58.8-94.4,50.9-150.8-1.9-13.2-4.2-25.6-9.9-37.6,5.9-5,11.4-11.3,16.4-18.5,6.8,12.1,7.6,25.4,12.5,36.9Z" fill="#243665"/>
    <polygon points="55.5 552.6 19 552.7 19.2 569.5 61.9 569.5 61.9 584.9 0 584.8 0 507.4 60.2 507.4 60.3 522.4 19.2 522.6 19 538 55.2 537.9 55.5 552.6" fill="#243665"/>
    <polygon points="286.7 552.6 250.6 552.6 250.6 569.5 293.1 569.5 293.2 584.8 231.7 584.9 231.6 507.5 291.6 507.4 291.6 522.3 250.6 522.5 250.6 538 286.8 538 286.7 552.6" fill="#243665"/>
    <path d="M127.5,507.7l18.8-.2-.5,49.6c-.1,11.2-6.9,21-17,25.4-12.7,5.5-27.6,5.2-39.7-1.8-9.3-5.3-14.2-15.9-14.2-26.5v-46.7c-.1,0,18.5,0,18.5,0l.3,46.2c0,10.3,8.2,16.6,17.9,16.2,9.1-.3,15.1-6.2,15.8-15.5v-46.8Z" fill="#243665"/>
    <path d="M397.3,135.3l-27.1,14.7-26.9-14.7v-31s26.9-14.7,26.9-14.7l8.9,4.9c-6.4,4.9-7.2,13.3-1.4,18.8,5.6,5.3,13.9,4.7,19.2-2.9l.4,24.9Z" fill="#243665"/>
    <path d="M220.9,569.4l.3,15.7h-58.4s0-77.3,0-77.3c2-.3,4.4-1,6.5-.9l12.5.6v61.9s39.3,0,39.3,0Z" fill="#243665"/>
    <path d="M251.8,135.2l-26.9,14.8-26.9-14.6v-31.2s26.5-14.5,26.5-14.5c3.3.9,5.6,2.6,9.4,4.8-4.4,3.5-6.2,7.8-5.3,12.7s5.3,8.3,9.5,9.2,9.9-1.3,13.4-5.7l.3,24.4Z" fill="#243665"/>
    <path d="M323.4,179.8l-25,47.7c-.9,0-1.7-.7-1-1.8v-79.9c.1,0,33.8,18.9,33.8,18.9l-7.7,15.1Z" fill="#243665"/>
    <path d="M492.6,642.8c0,2-4.1-.9-5-2l-16.9-21.1-.4,23.4h-3.9c0,.1,0-30.8,0-30.8,1.7-1.3,4,0,5.4,1.8l17.4,21.5.4-23.5c1.1-.3,2.1-.4,3.9.1l-.6,30.6Z" fill="#243665"/>
    <path d="M88.1,643.6c-10.2,1-17.7-6.1-18.2-15s6.5-16.9,16.5-17.1c9.1-.2,15.9,6,16.7,14.4s-5.1,16.7-14.9,17.7ZM83.1,615.4c-7.8,1.9-11,9.6-8.5,16.7s8.9,9.5,15.5,7.7c6.7-1.8,10.4-8.5,8.7-15.6-1.5-6.4-8.2-10.6-15.7-8.8Z" fill="#243665"/>
    <path d="M241.8,629.1h-15.6c-.6,3.6-.6,6.7,0,10.5l18,.3c.3.9.4,2.1,0,3.3h-22.7c0,.1,0-31.2,0-31.2h22.1c.1,1.1.3,2.6-.2,3.5l-17.3.2v9.7c0,0,15.5.5,15.5.5.2,1,.2,2.3,0,3.2Z" fill="#243665"/>
    <path d="M287.1,635.3h-17.1s-3.6,7.7-3.6,7.7c-.4.9-3.6.5-3.9-.6l12.7-28.1c.8-1.8,1.7-2.6,3.2-2.7s2.5.8,3.3,2.6l13.4,29.1c-1.1.2-3.6,0-4.4-.6-1.7-2-2.2-4.3-3.6-7.5ZM285.4,631.5l-6.9-15.5-6.9,15.9c5.3,0,9.6.6,13.9-.4Z" fill="#243665"/>
    <path d="M317.7,642.4c-7.9,2.9-18.2,0-18.9-3.5s.7-2.7,1.4-2.4c7.5,5.8,17.8,4.4,18.5-.8s-.9-4-3.2-4.7l-10.7-3.3c-3.6-1.1-5.5-3.9-5.5-7.2,0-3.7,1.9-6.6,5.8-8,6.2-2.2,14.8-.7,16.1,2.7s-.7,2.7-1.4,2.3c-7.5-4.6-15.9-2.5-16.4,2.1s.6,3.6,2.5,4.2l10.1,3.1c3.7,1.1,6.5,3.6,6.7,6.8s-1.1,7.3-4.8,8.6Z" fill="#243665"/>
    <path d="M346.8,642.6c-6.3,1.9-13,1.3-17.9-2.5-.9-.7,0-3.1,1.1-3.5,4.4,3.3,10.1,4.9,15.5,2.6,1.9-.8,3-2.7,2.9-4.4s-1.4-3.3-3.4-3.9l-10.1-3c-3.3-1-5.6-3.6-5.9-6.5-.3-3.4,1.3-6.7,4.9-8.3,5.2-2.3,11.8-1.9,16.7,1.2.8.5-.2,3.1-1.1,3.5-4.2-3-10.3-4-15-1s-1.6,2.8-1.5,3.8c0,1.4,1,3.1,2.8,3.6l10.2,3c3.6,1.1,6.1,3.5,6.4,6.9s-1.4,7.3-5.6,8.6Z" fill="#243665"/>
    <path d="M452.4,635.2l-16.9.3c-1.5.4-2.1,3.9-2.8,5.1l-1.4,2.4c-.4.7-3.9.2-3.5-.6l12.3-27.7c.8-1.7,1.3-2.8,2.8-3,2.1-.3,3.2.5,4.2,2.6l12.7,28c-.4,1.1-3,1.3-3.7.4-1.6-2.2-2.3-4.2-3.6-7.6ZM450.5,631.5l-6.7-15.6-7.3,16,13.9-.4Z" fill="#243665"/>
    <path d="M393.4,641.7c-7.2,3.9-18.9.9-19.7-2.8-.1-.7,1-2.9,1.7-2.4,4.7,3.1,9.7,5,15.2,2.7,1.9-.8,3.1-2.7,3-4.6s-1.5-3.4-3.6-4l-10.1-3c-3.2-.9-5.7-3.4-5.8-6.4-.1-2.8,1-6.4,4-7.9,5.4-2.9,12.3-2.4,17.5.5.1.9-.2,2.3-1,3.4-4.2-2.1-8.7-3.2-13-1.6s-3.4,2.8-3.4,4.8c0,2,1.6,3.5,3.9,4.1l9.5,2.5c3.2.8,5.3,3.2,5.8,5.8s-.4,6.8-3.9,8.7Z" fill="#243665"/>
    <path d="M210.1,636.8c1.4-1.2,3.7,1.3,2.9,2.3-2.5,3.2-6.3,4.1-10.1,4.4-7.8.6-14.8-3.8-17.1-10.8-2.3-7,0-14.9,6.8-18.8,9.5-5.5,22.6,0,19.9,3.9s-1.8,1-3.2,0c-5.2-4-12.5-2.9-16.7,1-5,4.7-4.5,12.4-.6,16.9,4.6,5.3,12.4,6.2,18.1,1.2Z" fill="#243665"/>
    <path d="M131.5,627.2c.6,0,.8,2.7.3,3.1l-15.9.6-.2,12.2c-1.5.3-2.5.3-3.7,0v-31.1c0,0,21.1,0,21.1,0,.6,0,1.2,2,.6,3.3l-17.9.3v11.4c-.1,0,15.7,0,15.7,0Z" fill="#243665"/>
    <path d="M161.7,627.3c1.3,0,1,3.1-.3,3.1h-15.1c0,0-.3,12.6-.3,12.6-1.4.4-2.8.4-3.7,0v-31s21.7,0,21.7,0l.2,3.4h-18.1c0,.1,0,11.7,0,11.7l15.6.3Z" fill="#243665"/>
    <path d="M514.9,642.7c-.4.7-2.3.9-3.7.3v-27.3c-3.7-.8-6.9-.4-10.9-.2-.1-1-.2-2,.1-3.5h25.4c0,0,.1,3.4.1,3.4l-10.9.2v27.1Z" fill="#243665"/>
    <path d="M415.9,642c0,1.9-3.8,1.8-3.8.5l-.2-26.6-10.4-.7c-.7-.3-.7-3.1,0-3.3h25.3c.3,1.1.3,1.9,0,3.3h-11s0,26.8,0,26.8Z" fill="#243665"/>
    <path d="M176.4,642.1c0,1.4-2.6,1.8-3.9.9v-30.9c1.5-.3,2.5-.2,4,0v30Z" fill="#243665"/>
    <path d="M364.8,642.7c-.6,1.2-3.8.8-3.8-.2v-30.5c1.6-.3,2.7-.2,3.8,0v30.7Z" fill="#243665"/>
    <path d="M297.5,267.3l-.2,41.3c-7.5,9-15.5,16.5-25.1,22.8-1.7,1.1-2.3,2.7-3.4,3.7-23.2,16.2-46.6,31.5-71.2,46.5-18.2,11.1-35.4,22-54.6,31.8l12.3-33.6c4.3-.1,10.9-3.5,15.3-6.6-35.3-46.4-48.7-105-36.6-161.5.3-1.3-.5-2.2-.9-2.1l2.3-5.9c2.4-10.6,5.2-20.6,10.1-31.7,26.9,38.2,75.7,52.9,118.9,33.4l33.2,62ZM226.1,281.6l36.9-32.7h-79.8s38,33.5,38,33.5c1.6.9,3.2.6,5-.8ZM267.8,306l.2-51.9-28.1,24.4,27.9,27.5ZM206.1,278.6l-27.8-24.5.2,52,27.6-27.6ZM235,283.5l-6,4.7c-3,1.9-7.2,2.8-10.2.6l-7.4-5.5-27.3,27.6h78.2c0,0-27.2-27.5-27.2-27.5Z" fill="#243665"/>
  </g>
  <path d="M307.5,11.5l-1.2-.2c.4,0,.8,0,1.2.2Z" fill="#1c9165"/>
  <path d="M412.8,259.7l-.2,58.1c0,4.4-4.8,7.1-8.8,7.1h-64.9c-3.6,0-7.4-3.1-7.4-6.9l.4-60.8c0-4.5,8.5-6.8,10.6-4.4.6,4.1.4,8.1,4,10.3s7.3,2.5,10.5.4,5-6,4-11.2h22.2c-.6,4.8.3,8.4,3.8,10.9,2.9,2.1,7.3,2.2,10.5.3,3.4-2,4.7-6.1,3.9-10.8,2.3-1.3,5.2-.9,7.7.4s3.7,3.2,3.6,6.6ZM354.8,290.9c2.2-2.5,2.1-10.8-.3-13s-11.3-2.5-13.7,0c-2.2,4-1.2,9.8-.5,14.1,4.2.6,11.2,2.6,14.4-1.1ZM378.6,291.4c2.8-3.2,2.2-11.2,0-14-3.2-1.6-11.1-2-13.5.7-2.2,3.2-1.9,10.6,0,13.6,2.8,1.8,11,2.3,13.5-.3ZM393.6,276.7c-5.2,1.7-7,6.7-5.5,10.8,1.6,4.4,6.2,6.2,10.8,5s6.6-5.5,5.3-10-5.7-7.3-10.6-5.8ZM355.3,315.8c.9-4.6,2.2-11.4-.9-14.2-3.8-2.3-9.8-1-13.9-.4-.9,4.5-1.9,10.8.5,14.4,3.8,2,9.8,1.2,14.3.2ZM379.4,315.7c.9-4.8,2.2-11-.6-14.1-3.9-2.2-9.7-1.2-14-.4-.9,4.4-2.1,10.9.6,14.4,3.7,2.1,9.7,1,14,0ZM403.2,315.3c2.1-3.7,1.8-10.7-.4-13.7-3-1.7-10.4-2-13.5.1-2.8,2.7-2.8,11.3.5,13.8,2.8,2.1,10.7,1.9,13.4-.2Z" fill="#fafcfd"/>
  <path d="M288.8,383c1.1-3.7,4.1-6.1,7.2-7.7l12.1,11.8c2.7-1.5,3.9-3.9,5.8-5.8l24.2-24.7c3.1,2.3,5.6,4.1,7.7,7.2l-18.9,19.6-18.6,19-19.6-19.2Z" fill="#fafcfd"/>
  <polygon points="326.2 416 289.3 416 288.7 409.6 326.1 409.6 326.2 416" fill="#fafcfd"/>
  <path d="M325.4,359.8h-36.1c-.5-2.5-.5-4.2,0-6.4h36.1s0,6.4,0,6.4Z" fill="#fafcfd"/>
  <path d="M279.5,417.7c-4.5.8-8.7.7-13.2.1-.8-4.3-.6-8.1-.2-12.8,4.2-.8,8.6-.8,13.2,0l.2,12.7Z" fill="#fafcfd"/>
  <path d="M279.3,363.8c-4.5.8-8.5.7-13,.2-.8-4.5-.8-8.6,0-13.1,4.5-.8,8.7-.9,13.1,0v12.9Z" fill="#fafcfd"/>
  <path d="M279.4,390.4c-4.4.8-8.6.9-13.1,0-.7-4.3-.7-8.1-.1-12.6,4.2-1,8.5-.8,12.9-.3.9,4.4.6,8.2.3,12.8Z" fill="#fafcfd"/>
  <path d="M396.2,256.8c-.3,2.2-2.4,2.7-4.1,2.6-4.9-.3-4.9-7.9-3.1-15.1.4-1.5,2.9-1.7,4-1.5,4.1.7,4.1,6.4,3.2,14Z" fill="#fafcfd"/>
  <path d="M356,254.5c0,3.2-1.4,4.7-3.4,5-5,.5-5.6-6.4-4.2-14.3.4-2.2,2.5-2.8,4.2-2.5s3.4,1.7,3.5,4.3v7.5Z" fill="#fafcfd"/>
  <path d="M226.1,281.6c-1.7,1.5-3.3,1.7-5,.8l-38-33.4h79.8s-36.9,32.6-36.9,32.6Z" fill="#fafcfd"/>
  <path d="M235,283.5l27.2,27.4h-78.2c0,0,27.3-27.5,27.3-27.5l7.4,5.5c2.9,2.2,7.2,1.3,10.2-.6l6-4.7Z" fill="#fafcfd"/>
  <polygon points="267.8 306 239.9 278.5 267.9 254.1 267.8 306" fill="#fafcfd"/>
  <polygon points="206.1 278.6 178.5 306.2 178.3 254.2 206.1 278.6" fill="#fafcfd"/>
  <g>
    <path d="M212.9,389.8l11.4-11,23.7-23,20.8-20.8c1.1-1.1,1.7-2.6,3.4-3.7,9.6-6.3,17.7-13.8,25.1-22.8l.2-41.3,33.6-62.1c34.8,15.8,73.8,9.4,101.8-14.4,5.7,12,8.1,24.4,9.9,37.6,8,56.4-12.2,109.6-50.9,150.8-6.6,7-12.5,13.4-19.9,19.8-22.9,19.9-47.7,37-74.6,50.8-31.3-16.4-59.4-36.4-84.6-59.9ZM356,254.5v-7.5c0-2.6-1.7-4-3.5-4.3s-3.8.4-4.2,2.5c-1.4,7.8-.7,14.8,4.2,14.3s3.5-1.8,3.4-5ZM396.2,256.8c.9-7.6.9-13.3-3.2-14s-3.6,0-4,1.5c-1.7,7.3-1.8,14.9,3.1,15.1s3.8-.4,4.1-2.6ZM412.8,259.7c0-3.5-2-5.8-3.6-6.6-2.5-1.3-5.4-1.7-7.7-.4.8,4.7-.6,8.7-3.9,10.8-3.2,2-7.6,1.8-10.5-.3-3.4-2.5-4.4-6.1-3.8-11h-22.2c1,5.4-.6,9.2-4,11.4s-7.5,1.5-10.5-.4-3.4-6.2-4-10.3c-2-2.5-10.5-.2-10.6,4.4l-.4,60.8c0,3.8,3.8,6.8,7.4,6.8h64.9c4,0,8.8-2.7,8.8-7l.2-58.1ZM279.3,363.8v-12.9c-4.4-.9-8.5-.8-13,0-.8,4.5-.8,8.6,0,13.1,4.5.4,8.6.6,13-.2ZM325.4,359.8v-6.4s-36.2,0-36.2,0c-.4,2.2-.4,4,0,6.4h36.1ZM288.8,383l19.6,19.2,18.6-19,18.9-19.6c-2.1-3.1-4.6-4.9-7.7-7.2l-24.2,24.7c-1.9,1.9-3.1,4.3-5.8,5.8l-12.1-11.8c-3.1,1.6-6.1,4-7.2,7.7ZM279.4,390.4c.3-4.5.6-8.4-.3-12.8-4.5-.6-8.7-.8-12.9.3-.6,4.5-.6,8.3.1,12.6,4.5.8,8.7.8,13.1,0ZM279.5,417.7l-.2-12.7c-4.6-.8-9-.8-13.2,0-.4,4.8-.5,8.5.2,12.8,4.5.6,8.7.7,13.2-.1ZM326.2,416v-6.4s-37.5,0-37.5,0l.6,6.4h36.9Z" fill="#1c9165"/>
    <path d="M284.4,117.8l13,27.8,12.6-25.7c1.5.7,2.3,1.7,2.8,3l15.1,36.7,42.4,18,42.1-17.9,16.6-39.6-16.7-39.7-22.8-11,32.7-6.2c33.8,31.7,33,85.1-1.7,114.2s-67.9,24.1-97.1,2.4l7.7-15.1-33.7-18.9v79.9c-.7,1.1,0,1.9.9,1.8.3,1.1-.9,1.8-1.7.7l-25.1-48.4c-38.2,29.3-94.5,16.6-116-26.7-14.2-28.8-8.5-62.7,13.2-86,1.5-1.6,2.9-4.1,5.6-3.7,10.4,1.4,20.4,2.8,31.1,6l-23.2,11.2-16.6,39.4,16.6,39.6,42.5,17.9,41.9-17.9,17.4-41.8Z" fill="#1c9165"/>
    <path d="M408.9,584.7l-.4-44.2-21.5,36.3c-3.3.7-6.2.8-9.4.3l-22.1-34.8-.6,42.7h-17.8c0,0-.1-77.5-.1-77.5l16.5-.2,29,46.8,27.7-46.5h16.9s0,77,0,77h-18.2Z" fill="#1c9165"/>
    <path d="M568.2,562.8l-22.5.4v21.5c0,0-19.2,0-19.2,0v-77.4s41.4.4,41.4.4c9.5,0,17.5,5,23.2,12.3,5.3,9.4,5.9,21.3-.3,30.4-5,7.3-13.6,12.1-22.6,12.3ZM563.8,547.4c7.7-.2,12.1-5.3,12.3-12,.1-6.1-4.2-12.3-11.2-12.4l-19.2-.3v25.1s18.1-.4,18.1-.4Z" fill="#1c9165"/>
    <path d="M465.3,562.1c10.4,11.5,28,9.7,37.9-1.6l12.4,10.5c-8.4,12.2-21.8,15.9-37,15-14.1-.8-27-8.5-33.2-19.7-7.4-13.2-7.3-28.8.5-41.2,14.5-23.2,52.8-26.1,69.3-4.8-4.2,4.2-7.1,7.9-12.3,11.3-9.4-11.4-27.1-12.9-37.3-2-8.1,8.7-8.5,23.3-.2,32.4Z" fill="#1c9165"/>
    <path d="M155.3,379.7l-6.8-10.4-13-21.6c-13.4-24.7-19.4-52.1-17.6-80.5,1.3-20.6,8-39.1,15.2-57.7.4-.1,1.1.8.9,2.1-12.1,56.5,1.3,115.1,36.6,161.5-4.4,3.1-10.9,6.5-15.3,6.6Z" fill="#1c9165"/>
    <path d="M431.9,363.2c26.7-40,39.4-87.8,32.2-135.9l-2.3-18.1c7.7,18,13.7,36.5,15.3,56.7,2.5,30.7-5.1,60.9-20.8,87.3-6.3,10.6-12.2,20.5-21.3,29.4l-3.2-19.4Z" fill="#1c9165"/>
    <path d="M297.6,97.4l-22.2-40.4-32.8-15.2c36-13,74.5-13.7,110.4.2-11.7,5.7-22.7,9.3-33.2,15.4l-22.1,40Z" fill="#1c9165"/>
  </g>
  <path d="M403.2,315.3c-2.6,2.1-10.6,2.3-13.4.2-3.2-2.5-3.3-11.1-.5-13.8,3-2.1,10.5-1.8,13.5-.1,2.1,3,2.5,10,.4,13.7Z" fill="#1c9165"/>
  <path d="M355.3,315.8c-4.5,1-10.5,1.8-14.3-.2-2.5-3.6-1.4-9.9-.5-14.4,4.1-.6,10.1-1.9,13.9.4,3.1,2.8,1.8,9.6.9,14.2Z" fill="#1c9165"/>
  <path d="M378.6,291.4c-2.5,2.6-10.8,2.1-13.5.3-1.8-3-2.1-10.4,0-13.6,2.3-2.7,10.3-2.3,13.5-.7,2.1,2.8,2.7,10.8,0,14Z" fill="#1c9165"/>
  <path d="M379.4,315.7c-4.3.9-10.3,2.1-14,0-2.7-3.5-1.5-10-.6-14.4,4.3-.9,10.1-1.8,14,.4,2.8,3,1.5,9.2.6,14.1Z" fill="#1c9165"/>
  <path d="M354.8,290.9c-3.3,3.7-10.2,1.8-14.4,1.1-.7-4.3-1.8-10.1.5-14.1,2.4-2.5,10.8-2.6,13.7,0s2.5,10.4.3,13Z" fill="#1c9165"/>
  <path d="M393.6,276.7c4.9-1.6,9.3,1.8,10.6,5.8s-1.4,9-5.3,10-9.2-.6-10.8-5c-1.5-4,.3-9.1,5.5-10.8Z" fill="#1c9165"/>
</svg>